<?xml version="1.0" encoding="utf-8"?>
<!-- Generator: Adobe Illustrator 18.1.1, SVG Export Plug-In . SVG Version: 6.00 Build 0)  -->
<svg version="1.1" id="Icon" xmlns="http://www.w3.org/2000/svg" xmlns:xlink="http://www.w3.org/1999/xlink" x="0px" y="0px"
	 viewBox="0 0 612 792" enable-background="new 0 0 612 792" xml:space="preserve">
<path fill="#666666" d="M613.5,618.5c0,42.3-34.3,76.5-76.6,76.5H77.1c-42.3,0-76.6-34.3-76.6-76.5V159.3
	c0-42.3,34.3-76.5,76.6-76.5h459.8c42.3,0,76.6,34.3,76.6,76.5V618.5z"/>
<path fill="#444444" d="M445.6,189.7H170.2c-25.7,0-46.5,20.8-46.5,46.5V515c0,25.7,20.8,46.5,46.5,46.5h275.5
	c25.7,0,46.5-20.8,46.5-46.5V236.2C492.1,210.5,471.3,189.7,445.6,189.7z M383.7,375.6c0,41.8-34,75.8-75.8,75.8
	c-41.8,0-75.8-34-75.8-75.8c0-12.6,3.1-24.4,8.6-34.8c12.6-24.3,38-41,67.2-41c29.2,0,54.6,16.7,67.2,41
	C380.6,351.2,383.7,363,383.7,375.6z M450.6,500.9c0,10.5-8.5,19-19,19H185.9c-10.5,0-19-8.5-19-19V340.7h31.4
	c-3.5,11-5.4,22.7-5.4,34.8c0,63.4,51.6,115.1,115.1,115.1c63.4,0,115.1-51.6,115.1-115.1c0-12.2-1.9-23.8-5.4-34.8h33.1
	L450.6,500.9L450.6,500.9z M450.6,280.8c0,10.5-8.5,19-19,19h-28.9c-10.5,0-19-8.5-19-19v-31.5c0-8.4,5.4-15.4,12.9-17.9h35
	c10.5,0,19,8.5,19,19L450.6,280.8L450.6,280.8z"/>
<path fill="#CCCCCC" d="M445.6,213.1H170.2c-25.7,0-46.5,20.8-46.5,46.5v278.8c0,25.7,20.8,46.5,46.5,46.5h275.5
	c25.7,0,46.5-20.8,46.5-46.5V259.5C492.1,233.9,471.3,213.1,445.6,213.1z M383.7,398.9c0,41.8-34,75.8-75.8,75.8
	c-41.8,0-75.8-34-75.8-75.8c0-12.6,3.1-24.4,8.6-34.8c12.6-24.3,38-41,67.2-41c29.2,0,54.6,16.7,67.2,41
	C380.6,374.5,383.7,386.4,383.7,398.9z M450.6,524.3c0,10.5-8.5,19-19,19H185.9c-10.5,0-19-8.5-19-19V364.1h31.4
	c-3.5,11-5.4,22.7-5.4,34.8c0,63.4,51.6,115.1,115.1,115.1c63.4,0,115.1-51.6,115.1-115.1c0-12.2-1.9-23.8-5.4-34.8h33.1
	L450.6,524.3L450.6,524.3z M450.6,304.1c0,10.5-8.5,19-19,19h-28.9c-10.5,0-19-8.5-19-19v-31.5c0-8.4,5.4-15.4,12.9-17.9h35
	c10.5,0,19,8.5,19,19L450.6,304.1L450.6,304.1z"/>
</svg>
