<?xml version="1.0" encoding="utf-8"?>
<!-- Generator: Adobe Illustrator 18.1.1, SVG Export Plug-In . SVG Version: 6.00 Build 0)  -->
<svg version="1.1" id="Icon" xmlns="http://www.w3.org/2000/svg" xmlns:xlink="http://www.w3.org/1999/xlink" x="0px" y="0px"
	 viewBox="0 0 612 792" enable-background="new 0 0 612 792" xml:space="preserve">
<path fill="#666666" d="M612,625.5c0,42.2-34.3,76.5-76.5,76.5h-459C34.3,702,0,667.7,0,625.5v-459C0,124.3,34.3,90,76.5,90h459
	c42.2,0,76.5,34.3,76.5,76.5V625.5z"/>
<path fill="#444444" d="M512.9,261c-14.3,6.3-29.6,10.6-45.7,12.5c16.5-9.9,29.1-25.5,35-44.1c-15.4,9.1-32.4,15.8-50.6,19.3
	c-14.5-15.5-35.2-25.1-58.1-25.1c-44,0-79.6,35.6-79.6,79.6c0,6.2,0.7,12.3,2.1,18.2c-66.2-3.3-124.9-35-164.2-83.2
	c-6.9,11.8-10.8,25.4-10.8,40c0,27.6,14.1,52,35.4,66.3c-13.1-0.4-25.3-4-36.1-10c0,0.3,0,0.7,0,1c0,38.6,27.5,70.8,63.9,78.1
	c-6.7,1.8-13.7,2.8-21,2.8c-5.1,0-10.1-0.5-15-1.4c10.1,31.6,39.6,54.7,74.4,55.3c-27.3,21.4-61.6,34.1-98.9,34.1
	c-6.4,0-12.8-0.4-19-1.1c35.3,22.6,77.1,35.8,122.1,35.8c146.5,0,226.6-121.4,226.6-226.6c0-3.5-0.1-6.9-0.2-10.3
	C488.8,291,502.3,277,512.9,261z"/>
<path fill="#FFFFFF" d="M512.9,277.9c-14.3,6.3-29.6,10.6-45.7,12.5c16.5-9.9,29.1-25.5,35-44.1c-15.4,9.1-32.4,15.8-50.6,19.3
	c-14.5-15.5-35.2-25.1-58.1-25.1c-44,0-79.6,35.6-79.6,79.6c0,6.2,0.7,12.3,2.1,18.2c-66.2-3.3-124.9-35-164.2-83.2
	c-6.9,11.8-10.8,25.4-10.8,40c0,27.6,14.1,52,35.4,66.3c-13.1-0.4-25.3-4-36.1-10c0,0.3,0,0.7,0,1c0,38.6,27.5,70.8,63.9,78.1
	c-6.7,1.8-13.7,2.8-21,2.8c-5.1,0-10.1-0.5-15-1.4c10.1,31.6,39.6,54.7,74.4,55.3c-27.3,21.4-61.6,34.1-98.9,34.1
	c-6.4,0-12.8-0.4-19-1.1c35.3,22.6,77.1,35.8,122.1,35.8c146.5,0,226.6-121.4,226.6-226.6c0-3.5-0.1-6.9-0.2-10.3
	C488.8,307.9,502.3,293.9,512.9,277.9z"/>
</svg>
