<?xml version="1.0" encoding="utf-8"?>
<!-- Generator: Adobe Illustrator 18.1.1, SVG Export Plug-In . SVG Version: 6.00 Build 0)  -->
<svg version="1.1" id="Icon" xmlns="http://www.w3.org/2000/svg" xmlns:xlink="http://www.w3.org/1999/xlink" x="0px" y="0px"
	 viewBox="0 0 612 792" enable-background="new 0 0 612 792" xml:space="preserve">
<path fill="#666666" d="M612,625.5c0,42.2-34.3,76.5-76.5,76.5h-459C34.3,702,0,667.7,0,625.5v-459C0,124.3,34.3,90,76.5,90h459
	c42.2,0,76.5,34.3,76.5,76.5V625.5z"/>
<g>
	<g>
		<path fill="#444444" d="M168.8,522.1h63.6V304.7h-63.6L168.8,522.1L168.8,522.1z M200.6,217.1c-20.5,0-33.9,13.8-33.5,32.2
			c-0.4,17.6,13,31.8,33.1,31.8c20.9,0,34.3-14.2,34.3-31.8C234.1,230.9,221.1,217.1,200.6,217.1z M404.3,307.8
			c-20.3,0-41.1-4.2-63.2,30.1h-1.3l-1.1-33.1h-56.3c0.8,18,0.9,44.9,0.9,70.4v147H347V396.5c0-5.9,0.8-11.7,2.5-15.9
			c4.2-11.7,14.6-23.9,32.2-23.9c23,0,32.2,18,32.2,44.4v121.1h63.6v-129C477.6,332.8,446.2,307.8,404.3,307.8z"/>
	</g>
</g>
<g>
	<g>
		<path fill="#FFFFFF" d="M200.6,238.3c-20.5,0-33.9,13.8-33.5,32.2c-0.4,17.6,13,31.8,33.1,31.8c20.9,0,34.3-14.2,34.3-31.8
			C234.1,252.1,221.1,238.3,200.6,238.3z M168.8,543.4h63.6V326h-63.6L168.8,543.4L168.8,543.4z M404.3,329
			c-20.3,0-41.1-4.2-63.2,30.1h-1.3l-1.1-33.1h-56.3c0.8,18,0.9,44.9,0.9,70.4v147H347V417.7c0-5.9,0.8-11.7,2.5-15.9
			c4.2-11.7,14.6-23.9,32.2-23.9c23,0,32.2,18,32.2,44.4v121h63.6v-129C477.6,354.1,446.2,329,404.3,329z"/>
	</g>
</g>
</svg>
